<svg xmlns="http://www.w3.org/2000/svg" xmlns:xlink="http://www.w3.org/1999/xlink" width="371" height="193" viewBox="0 0 371 193">
  <defs>
    <style>
      .cls-1 {
        clip-path: url(#clip-logo);
      }

      .cls-2 {
        fill: #ff8c00;
      }

      .cls-3 {
        fill: #3353d1;
      }

      .cls-4 {
        fill: #fff;
      }
    </style>
    <clipPath id="clip-logo">
      <rect width="371" height="193"/>
    </clipPath>
  </defs>
  <g id="logo" class="cls-1">
    <rect class="cls-4" width="371" height="193"/>
    <g id="layer1" transform="translate(-38.978 -322.664)">
      <g id="g5493" transform="translate(54.978 344.664)">
        <path id="path5491" class="cls-2" d="M234.465,23.571v48.64a1.317,1.317,0,0,1-1.347,1.347H223.2a1.317,1.317,0,0,1-1.347-1.347V23.571a1.317,1.317,0,0,1,1.347-1.347h9.921a1.317,1.317,0,0,1,1.347,1.347ZM311.9,22.224a2.278,2.278,0,0,1,1.347.578,1.226,1.226,0,0,1,.195,1.156L297.069,72.693a1.371,1.371,0,0,1-1.251.868h-8.861a1.243,1.243,0,0,1-1.251-.868l-9.541-28.412L266.631,72.69a1.371,1.371,0,0,1-1.251.868h-8.861a1.239,1.239,0,0,1-1.251-.868L238.892,23.954a1.273,1.273,0,0,1,.192-1.153,1.211,1.211,0,0,1,1.06-.578H251.22a1.332,1.332,0,0,1,1.254.961l8.762,28.8,9.633-28.8a1.371,1.371,0,0,1,1.251-.868h7.8a1.243,1.243,0,0,1,1.251.868l9.633,28.8,8.765-28.8a1.329,1.329,0,0,1,1.251-.961H311.9Zm16.758,0a1.446,1.446,0,0,1,1.347,1.347v48.64a1.317,1.317,0,0,1-1.347,1.347H318.74a1.317,1.317,0,0,1-1.347-1.347V23.571a1.317,1.317,0,0,1,1.347-1.347Zm-112.592,49.6a.982.982,0,0,1-.772,1.635H203.161a1.554,1.554,0,0,1-1.251-.578l-2.021-2.5a27.165,27.165,0,0,1-14.546,4.335,26.794,26.794,0,1,1,22.634-12.331l8.092,9.439Zm-101.423,23.6c2.506.964,3.47,4.718,3.661,6.355.386,2.988-.479,4.143-1.443,4.143s-2.314-1.156-3.757-3.467-2.024-4.912-1.251-6.263a2.125,2.125,0,0,1,2.793-.769Zm-14.639,10.885a7.516,7.516,0,0,1,4.817,2.021c2.985,2.506,3.853,5.394,2.311,7.514a5.074,5.074,0,0,1-3.949,1.733,6.871,6.871,0,0,1-4.526-1.637c-2.7-2.311-3.467-6.167-1.736-8.283a3.735,3.735,0,0,1,3.083-1.347ZM66.3,134.142a66.155,66.155,0,1,1,56.923-32.265.439.439,0,0,1-.772-.195c-2.311-16.276-12.232-25.236-26.679-27.93-1.254-.195-1.446-.964.192-1.156a65.8,65.8,0,0,1,13.965.287,44.319,44.319,0,0,0,.29-5.1A43.825,43.825,0,1,0,66.4,111.606h2.021a59.119,59.119,0,0,1-.868-11.849c.1-2.7.677-3.083,1.832-.964,6.068,10.5,14.737,19.937,31.687,23.694,13.869,3.083,27.739,6.646,42.668,25.619,1.347,1.637-.674,3.371-2.215,2.024-15.216-13.486-29.086-17.917-41.7-17.917-14.16.1-23.79,1.928-33.519,1.928Zm125.689-73.1-5.3-6.454a1.053,1.053,0,0,1,.772-1.733h11.172a14.416,14.416,0,0,0,.868-5.008c0-7.993-5.972-14.929-14.16-14.929s-14.16,6.936-14.16,14.929,5.975,14.833,14.16,14.833a13.33,13.33,0,0,0,6.646-1.637Z" transform="translate(-0.034 -1.613)"/>
        <path id="Path_1" data-name="Path 1" class="cls-3" d="M25.266,5.157V-24.287H8.231V5.157H2.923V-28.888H30.5V5.157ZM45.722,1.335A7.094,7.094,0,0,0,50.487-.293,5.282,5.282,0,0,0,52.4-4.469V-6.474L46.17-6.05q-5.309.33-5.309,3.775A3.078,3.078,0,0,0,42.183.344,5.761,5.761,0,0,0,45.722,1.335ZM44.353,5.417A9.231,9.231,0,0,1,38.1,3.341,6.973,6.973,0,0,1,35.694-2.18a6.235,6.235,0,0,1,2.525-5.261q2.5-1.911,7.267-2.218l6.913-.4v-1.982a4.145,4.145,0,0,0-1.416-3.374,6.045,6.045,0,0,0-3.964-1.156,6.049,6.049,0,0,0-3.515.991,4.119,4.119,0,0,0-1.746,2.666H36.968a7.211,7.211,0,0,1,3-5.639,11.359,11.359,0,0,1,7.2-2.241,11.419,11.419,0,0,1,7.479,2.289,7.458,7.458,0,0,1,2.808,6.087V5.157H52.564V.887h-.118a7.84,7.84,0,0,1-3.256,3.3A9.741,9.741,0,0,1,44.353,5.417ZM76.039-20.725A9.684,9.684,0,0,1,83.9-17.162q2.973,3.563,2.973,9.508,0,5.922-2.949,9.508a9.542,9.542,0,0,1-7.762,3.563q-5.71,0-8.116-4.459h-.094V13.533h-5.12v-34h4.931v4.247h.118a7.847,7.847,0,0,1,3.28-3.28A9.92,9.92,0,0,1,76.039-20.725Zm-1.3,21.8a6.064,6.064,0,0,0,5-2.383,9.933,9.933,0,0,0,1.887-6.347A9.933,9.933,0,0,0,79.743-14a6.064,6.064,0,0,0-5-2.383,5.972,5.972,0,0,0-4.931,2.407A10.057,10.057,0,0,0,67.9-7.654a10.057,10.057,0,0,0,1.911,6.323A5.931,5.931,0,0,0,74.742,1.076ZM108.315-12.3a5.252,5.252,0,0,0-2.005-3,6.508,6.508,0,0,0-3.964-1.18A6,6,0,0,0,97.368-14.1,10.216,10.216,0,0,0,95.48-7.654a10.088,10.088,0,0,0,1.911,6.488A6.045,6.045,0,0,0,102.37,1.17q4.813,0,5.993-4.105h4.931a9.207,9.207,0,0,1-3.539,6.087,11.7,11.7,0,0,1-7.408,2.312,11.324,11.324,0,0,1-8.73-3.515q-3.3-3.539-3.3-9.6,0-5.969,3.28-9.555A11.23,11.23,0,0,1,102.3-20.8a11.441,11.441,0,0,1,7.55,2.5,9.243,9.243,0,0,1,3.4,5.993Zm19.937-4.318a6.164,6.164,0,0,0-4.577,1.84,7.256,7.256,0,0,0-2.053,4.789h13a6.99,6.99,0,0,0-1.84-4.813A6,6,0,0,0,128.252-16.62ZM139.482-2.345a8.35,8.35,0,0,1-3.61,5.639,12.452,12.452,0,0,1-7.385,2.171,11.44,11.44,0,0,1-8.824-3.515q-3.232-3.492-3.232-9.508t3.232-9.626a10.992,10.992,0,0,1,8.612-3.61,10.725,10.725,0,0,1,8.376,3.421q3.091,3.4,3.091,9.225v1.793H121.6v.307a7.408,7.408,0,0,0,1.911,5.332,6.641,6.641,0,0,0,5.073,2.029,7.3,7.3,0,0,0,3.869-.991A4.691,4.691,0,0,0,134.6-2.345Zm18-18.379a9.684,9.684,0,0,1,7.857,3.563q2.973,3.563,2.973,9.508,0,5.922-2.949,9.508A9.542,9.542,0,0,1,157.6,5.417q-5.71,0-8.116-4.459h-.094V13.533h-5.12v-34H149.2v4.247h.118a7.848,7.848,0,0,1,3.28-3.28A9.92,9.92,0,0,1,157.484-20.725Zm-1.3,21.8a6.064,6.064,0,0,0,5-2.383,9.933,9.933,0,0,0,1.887-6.347A9.933,9.933,0,0,0,161.188-14a6.064,6.064,0,0,0-5-2.383,5.972,5.972,0,0,0-4.931,2.407,10.057,10.057,0,0,0-1.911,6.323,10.057,10.057,0,0,0,1.911,6.323A5.931,5.931,0,0,0,156.187,1.076Z" transform="translate(161.66 117.758)"/>
      </g>
    </g>
  </g>
</svg>
